Cradle 2 the Grave 2004 HDTVRip H264 AAC-Rx(Phoenix-RG).mp4
Format : MPEG-4
Format profile : Base Media
Codec ID : isom
File size : 1.44 GiB
Duration : 1h 37mn
Overall bit rate : 2 125 Kbps

Video #1
Format : AVC
Format/Info : Advanced Video Codec
Format profile : High@L4.1
Format settings, CABAC : Yes
Format settings, ReFrames : 3 frames
Codec ID : avc1
Codec ID/Info : Advanced Video Coding
Duration : 1h 37mn
Bit rate mode : Variable
Bit rate : 1 800 Kbps
Maximum bit rate : 7 273 Kbps
Width : 1 280 pixels
Height : 544 pixels
Display aspect ratio : 2.35
Frame rate mode : Constant
Frame rate : 25.000 fps
Resolution : 24 bits
Colorimetry : 4:2:0
Scan type : Progressive
Bits/(Pixel*Frame) : 0.103
Stream size : 1.22 GiB (85%)
Writing library : x264 core 98 r1649 c54c47d

Audio #2
Format : AAC
Format/Info : Advanced Audio Codec
Format version : Version 4
Format profile : LC
Format settings, SBR : No
Codec ID : 40
Duration : 1h 37mn
Bit rate mode : Variable
Bit rate : 321 Kbps
Maximum bit rate : 388 Kbps
Channel(s) : 6 channels
Channel positions : Front: L C R, Rear: L R, LFE
Sampling rate : 48.0 KHz
Resolution : 16 bits
Stream size : 223 MiB (15%)